<?xml version="1.0" encoding="UTF-8" standalone="no"?>
<svg
   xmlns:dc="http://purl.org/dc/elements/1.1/"
   xmlns:cc="http://creativecommons.org/ns#"
   xmlns:rdf="http://www.w3.org/1999/02/22-rdf-syntax-ns#"
   xmlns:svg="http://www.w3.org/2000/svg"
   xmlns="http://www.w3.org/2000/svg"
   height="60"
   width="56"
   id="svg42"
   xml:space="preserve"
   viewBox="0 0 56 60"
   y="0px"
   x="0px"
   version="1.1"><metadata
     id="metadata48"><rdf:RDF><cc:Work
         rdf:about=""><dc:format>image/svg+xml</dc:format><dc:type
           rdf:resource="http://purl.org/dc/dcmitype/StillImage" /><dc:title></dc:title></cc:Work></rdf:RDF></metadata><defs
     id="defs46" /><style
     id="style2"
     type="text/css">
	.st0{display:none;}
	.st1{display:inline;}
	.st2{fill:none;stroke:#B3B3B3;stroke-width:0.1;stroke-miterlimit:10;}
</style><g
     transform="translate(-4,-2)"
     style="display:none"
     id="g28"
     class="st0"><g
       style="display:inline"
       id="g26"
       class="st1"><rect
         style="fill:none;stroke:#b3b3b3;stroke-width:0.1;stroke-miterlimit:10"
         id="rect4"
         height="60"
         width="60"
         class="st2"
         y="2"
         x="2" /><line
         style="fill:none;stroke:#b3b3b3;stroke-width:0.1;stroke-miterlimit:10"
         id="line6"
         y2="62"
         x2="32"
         y1="2"
         x1="32"
         class="st2" /><line
         style="fill:none;stroke:#b3b3b3;stroke-width:0.1;stroke-miterlimit:10"
         id="line8"
         y2="32"
         x2="2"
         y1="32"
         x1="62"
         class="st2" /><line
         style="fill:none;stroke:#b3b3b3;stroke-width:0.1;stroke-miterlimit:10"
         id="line10"
         y2="62"
         x2="62"
         y1="2"
         x1="2"
         class="st2" /><rect
         style="fill:none;stroke:#b3b3b3;stroke-width:0.1;stroke-miterlimit:10"
         id="rect12"
         height="44"
         width="44"
         class="st2"
         y="10"
         x="10" /><line
         style="fill:none;stroke:#b3b3b3;stroke-width:0.1;stroke-miterlimit:10"
         id="line14"
         y2="62"
         x2="2"
         y1="2"
         x1="62"
         class="st2" /><line
         style="fill:none;stroke:#b3b3b3;stroke-width:0.1;stroke-miterlimit:10"
         id="line16"
         y2="2"
         x2="32"
         y1="32"
         x1="2"
         class="st2" /><line
         style="fill:none;stroke:#b3b3b3;stroke-width:0.1;stroke-miterlimit:10"
         id="line18"
         y2="32"
         x2="62"
         y1="2"
         x1="32"
         class="st2" /><line
         style="fill:none;stroke:#b3b3b3;stroke-width:0.1;stroke-miterlimit:10"
         id="line20"
         y2="62"
         x2="32"
         y1="32"
         x1="62"
         class="st2" /><line
         style="fill:none;stroke:#b3b3b3;stroke-width:0.1;stroke-miterlimit:10"
         id="line22"
         y2="32"
         x2="2"
         y1="62"
         x1="32"
         class="st2" /><circle
         style="fill:none;stroke:#b3b3b3;stroke-width:0.1;stroke-miterlimit:10"
         id="circle24"
         r="21"
         cy="32"
         cx="32"
         class="st2" /></g></g><polygon
     transform="translate(-4,-2)"
     id="polygon30"
     points="12,57 24,57 24,55 14,55 14,41 24,41 24,39 14,39 14,32 12,32 " /><path
     id="path32"
     d="M 22,44 H 54 V 30 H 22 Z m 4,-10 h 24 v 2 H 26 Z m 0,4 h 20 v 2 H 26 Z" /><path
     id="path34"
     d="M 22,60 H 54 V 46 H 22 Z m 4,-10 h 24 v 2 H 26 Z m 0,4 h 20 v 2 H 26 Z" /><path
     id="path36"
     d="m 48,28 c 4.4,0 8,-3.6 8,-8 0,-4.4 -3.6,-8 -8,-8 H 45.9 C 45.4,8.6 42.5,6 39,6 38.2,6 37.4,6.1 36.6,6.4 35.5,2.7 32,0 28,0 24.1,0 20.8,2.4 19.5,6 18.5,5.4 17.3,5.1 16.1,5 14.7,5 13.3,5.5 12.2,6.4 9.6,8.5 9,10.4 9,12 H 8 c -4.4,0 -8,3.6 -8,8 0,4.4 3.6,8 8,8 z" /></svg>