<?xml version="1.0" encoding="UTF-8" standalone="no"?>
<svg
   xmlns:dc="http://purl.org/dc/elements/1.1/"
   xmlns:cc="http://creativecommons.org/ns#"
   xmlns:rdf="http://www.w3.org/1999/02/22-rdf-syntax-ns#"
   xmlns:svg="http://www.w3.org/2000/svg"
   xmlns="http://www.w3.org/2000/svg"
   height="89.699997"
   width="85.007736"
   id="svg8"
   xml:space="preserve"
   enable-background="new 0 0 97.7 100"
   viewBox="0 0 85.007739 89.699997"
   y="0px"
   x="0px"
   version="1.1"><metadata
     id="metadata14"><rdf:RDF><cc:Work
         rdf:about=""><dc:format>image/svg+xml</dc:format><dc:type
           rdf:resource="http://purl.org/dc/dcmitype/StillImage" /><dc:title></dc:title></cc:Work></rdf:RDF></metadata><defs
     id="defs12" /><path
     id="path2"
     d="m 69.703867,89.7 h -57.2 c -1.4,0 -2.5,-1.1 -2.5,-2.5 V 45.5 H 2.5038672 c -1,0 -1.9,-0.6 -2.3,-1.5 -0.4,-0.9 -0.2,-2 0.5,-2.7 L 40.103867,0.8 c 0.5,-0.5 1.1,-0.8 1.8,-0.8 0.7,0 1.3,0.3 1.8,0.7 l 11.2,11.2 V 9.8 c 0,-1.4 1.1,-2.5 2.5,-2.5 h 12.3 c 1.4,0 2.5,1.1 2.5,2.5 v 19.4 l 12.1,12 c 0.7,0.7 0.9,1.8 0.5,2.7 -0.4,0.9 -1.3,1.5 -2.3,1.5 h -10.3 v 41.7 c 0,1.5 -1.2,2.6 -2.5,2.6 z m -56.1,-3.5 h 55 V 44.4 c 0,-1.4 1.1,-2.5 2.5,-2.5 h 8.8 l -10.6,-10.5 c -0.5,-0.5 -0.7,-1.1 -0.7,-1.8 V 10.9 h -10.2 v 3.6 c 0,1.4 -1.1,2.5 -2.5,2.5 -0.7,0 -1.3,-0.3 -1.8,-0.7 l -12.2,-12.2 -36.8999998,37.8 h 6.0999998 c 1.4,0 2.5,1.1 2.5,2.5 z m 39,-21.8 c 0.8,-0.5 1.1,-1.6 0.6,-2.4 -2.3,-4 -6.7,-6.5 -11.3,-6.5 -4.6,0 -8.8,2.3 -11.2,6.3 -0.5,0.8 -0.2,1.9 0.6,2.4 0.8,0.5 1.9,0.2 2.4,-0.6 1.8,-2.9 4.8,-4.6 8.2,-4.6 3.4,0 6.5,1.8 8.3,4.7 0.3,0.6 0.9,0.9 1.5,0.9 0.3,0.1 0.6,0 0.9,-0.2 z m -24.4,-6.5 c 3.4,-4.4 8.5,-6.9 14,-6.9 5.4,0 10.5,2.5 13.9,6.7 0.6,0.8 1.7,0.9 2.5,0.3 0.8,-0.6 0.9,-1.7 0.3,-2.5 -4,-5.2 -10.1,-8.1 -16.7,-8.1 -6.6,0 -12.8,3 -16.8,8.3 -0.6,0.8 -0.4,1.9 0.3,2.5 0.3,0.2 0.7,0.4 1.1,0.4 0.6,0 1.1,-0.2 1.4,-0.7 z m 35.6,-5.4 c 0.8,-0.6 0.9,-1.7 0.2,-2.5 -5.5,-6.6 -13.5,-10.3 -22.1,-10.3 -8.5,0 -16.5,3.7 -21.9,10.2 -0.6,0.7 -0.5,1.9 0.2,2.5 0.7,0.6 1.9,0.5 2.5,-0.2 4.8,-5.7 11.8,-8.9 19.2,-8.9 7.5,0 14.5,3.3 19.4,9.1 0.4,0.4 0.9,0.6 1.4,0.6 0.3,-0.1 0.7,-0.3 1.1,-0.5 z" /></svg>