<svg xmlns="http://www.w3.org/2000/svg" xmlns:xlink="http://www.w3.org/1999/xlink" version="1.1" x="0px" y="0px" viewBox="0 0 64 80" style="enable-background:new 0 0 64 64;" xml:space="preserve"><style type="text/css">
	.st0{display:none;}
	.st1{display:inline;}
	.st2{fill:none;stroke:#B3B3B3;stroke-width:0.1;stroke-miterlimit:10;}
</style><g class="st0"><g class="st1"><rect x="2" y="2" class="st2" width="60" height="60"/><line class="st2" x1="32" y1="2" x2="32" y2="62"/><line class="st2" x1="62" y1="32" x2="2" y2="32"/><line class="st2" x1="2" y1="2" x2="62" y2="62"/><rect x="10" y="10" class="st2" width="44" height="44"/><line class="st2" x1="62" y1="2" x2="2" y2="62"/><line class="st2" x1="2" y1="32" x2="32" y2="2"/><line class="st2" x1="32" y1="2" x2="62" y2="32"/><line class="st2" x1="62" y1="32" x2="32" y2="62"/><line class="st2" x1="32" y1="62" x2="2" y2="32"/><circle class="st2" cx="32" cy="32" r="21"/></g></g><polygon points="14,32 12,32 12,57 24,57 24,55 14,55 14,41 24,41 24,39 14,39 "/><path d="M26,46h32V32H26V46z M30,36h24v2H30V36z M30,40h20v2H30V40z"/><path d="M26,62h32V48H26V62z M30,52h24v2H30V52z M30,56h20v2H30V56z"/><path d="M52,30c4.4,0,8-3.6,8-8s-3.6-8-8-8h-2.1c-0.5-3.4-3.4-6-6.9-6c-0.8,0-1.6,0.1-2.4,0.4C39.5,4.7,36,2,32,2  c-3.9,0-7.2,2.4-8.5,6c-1-0.6-2.2-0.9-3.4-1c-1.4,0-2.8,0.5-3.9,1.4c-2.6,2.1-3.2,4-3.2,5.6h-1c-4.4,0-8,3.6-8,8s3.6,8,8,8H52z"/><text x="0" y="79" fill="#000000" font-size="5px" font-weight="bold" font-family="'Helvetica Neue', Helvetica, Arial-Unicode, Arial, Sans-serif">Created by I Putu Kharismayadi</text><text x="0" y="84" fill="#000000" font-size="5px" font-weight="bold" font-family="'Helvetica Neue', Helvetica, Arial-Unicode, Arial, Sans-serif">from the Noun Project</text></svg>